<svg width={width} height={width} viewBox="0 0 842 830" fill="none" xmlns="http://www.w3.org/2000/svg">
<path d="M450.3 46.6C234.4 46.6 58.8 222.3 58.8 438.1C58.8 653.9 234.4 829.6 450.3 829.6C666.2 829.6 841.8 653.9 841.8 438.1C841.8 222.3 666.2 46.6 450.3 46.6ZM450.3 105.4C531.4 105.4 605.5 134.3 663.2 182.3C609.3 229.7 547.7 268.4 481.2 298C446.6 235 409 174 366.8 116.4C393.5 109.4 421.4 105.4 450.3 105.4ZM309 137C352.3 194.3 390.5 255.4 425.7 318.5C353.3 343.6 276.7 359.9 195.7 359.9C172.8 359.9 150.3 358.4 127.9 356.2C152.6 258.8 219.9 178.8 309 137ZM704.8 223.7C752.9 280.8 782.2 354.4 782.9 435C740.6 424.4 696.4 418.6 650.9 418.6C615.1 418.6 580.5 423.2 546.7 429.8C534.9 402.5 522 375.9 508.7 349.4C580.4 317.1 646.9 275.2 704.8 223.7ZM453.8 371C466.2 395.5 478.7 419.8 489.8 445.1C371.1 482.2 269.2 557.6 200.9 658.2C149.2 599.6 117.5 522.7 117.5 438.2C117.5 430.1 118.2 422.2 118.7 414.2C144.1 416.8 169.7 418.6 195.8 418.6C286.7 418.6 372.9 400.3 453.8 371ZM651 477.3C695 477.3 737.5 483.6 778 494.6C762.6 584.8 711.4 662.5 639.1 712.3C621.7 635.2 597.3 560.9 569.4 488.3C596.3 483.7 622.7 477.3 651 477.3ZM510.8 499.4C541.6 577.7 567.9 658.3 585.5 742.3C544.2 760.6 498.5 771.1 450.3 771.1C372.2 771.1 300.7 744.1 244 699.3C305.6 604.1 400 533 510.8 499.4Z" fill={color}/>
<path d="M712.2 481.5C695.6 541.5 662.8 594.6 618.6 635.7C624.6 656.5 630.1 677.5 635.1 698.6C700 647 748.3 575.2 770.2 492.8C751.3 488 731.9 484.2 712.2 481.5ZM664 110.8C593.5 42.6 497.5 0.600006 391.9 0.600006C176 0.600006 0.299988 176.2 0.299988 392.1C0.299988 528.9 70.8 649.6 177.4 719.6C103.8 648.4 57.9 548.6 57.9 438.3C57.9 427.2 58.4 416.3 59.3 405.4C59.1 401 59 396.6 59 392.1C59 384 59.7 376.1 60.2 368.1L64.1 368.5C88.2 370.9 112.5 372.5 137.3 372.5C206.7 372.5 273.4 361.8 337.1 343.7C356.8 338.1 376.2 331.8 395.3 324.9C395.8 325.9 396.3 326.8 396.7 327.8C406.2 324.9 415.5 321.8 424.9 318.6C389.7 255.5 351.5 194.4 308.2 137.1C302.1 140 296 143 290.1 146.3C317.7 187 343.2 229.3 367.3 272.5C296.1 297.2 220.7 313.4 141.1 313.9C139.9 313.9 138.6 313.9 137.4 313.9C117.8 313.9 98.5 312.8 79.2 311.1C76 310.8 72.8 310.5 69.6 310.2C94.2 212.8 161.5 132.9 250.6 91.1C252.4 93.5 254.1 95.8 255.9 98.2C273.1 88.3 291.2 79.8 310 72.6C309.5 71.9 309 71.2 308.4 70.4C315.5 68.6 322.7 66.9 330 65.5C350 61.6 370.7 59.4 391.8 59.4C472.9 59.4 547 88.3 604.7 136.3C602.9 137.9 601.1 139.5 599.2 141.1C553.4 180.5 502.2 213.7 447.4 240.5C457.3 257.2 467 274.1 476.5 291.2C538.2 260.7 595.5 223 646.4 177.9C649.4 181.5 652.3 185.1 655.2 188.8C667.2 204.4 677.9 221 687.1 238.6C710.6 283.7 724 334.8 724.5 389.1C682.2 378.5 638 372.7 592.5 372.7C568.5 372.7 545 374.8 521.9 378.2C530.2 395.3 538.3 412.6 545.9 430.1C579.8 423.5 614.3 418.9 650.1 418.9C695.3 418.9 739.1 424.6 781 435C781.3 432.1 781.6 429.1 781.9 426.2C782.9 415 783.4 403.7 783.4 392.3C783.4 281.8 737.6 182 664 110.8ZM510 499.5C497.9 503.2 486 507.3 474.3 511.8C495.6 571.7 513.8 633 527.1 696.2C485.8 714.5 440.1 725 391.9 725C340.2 725 291.4 713.2 247.9 692.2C246.3 694.6 244.7 696.9 243.2 699.3C299.9 744.2 371.4 771.1 449.5 771.1C470 771.1 490 769.2 509.4 765.7C535.1 757.6 559.7 746.9 582.9 733.9C565.3 652.9 539.7 575.1 510 499.5ZM453 371.1C462.9 367.9 443.1 374.7 453 371.1C455.8 377 447.7 384 450.3 390C338.9 424.8 223.3 502.4 155.4 593.9C165.3 612.5 176.9 630.1 190 646.4C251.7 554.7 344.2 486.1 452.4 453.3C452.9 454.7 453.5 456.1 454 457.4C465.5 452.9 477.1 448.9 489 445.2C477.9 419.9 465.4 395.6 453 371.1Z" fill="#FF55FF"/>
<path d="M416.4 26.7C200.5 26.7 24.9 202.4 24.9 418.2C24.9 634 200.5 809.7 416.4 809.7C632.3 809.7 808 634.1 808 418.2C808 202.3 632.3 26.7 416.4 26.7ZM416.4 85.4C497.5 85.4 571.6 114.3 629.3 162.3C575.4 209.7 513.8 248.4 447.3 278C412.7 215 375.1 154 332.9 96.4C359.6 89.5 387.5 85.4 416.4 85.4ZM275.2 117.1C318.5 174.4 356.7 235.5 391.9 298.6C319.5 323.7 242.9 340 161.9 340C139 340 116.5 338.5 94.1 336.3C118.8 238.8 186 158.9 275.2 117.1ZM671 203.8C719.1 260.9 748.4 334.5 749.1 415.1C706.8 404.5 662.6 398.7 617.1 398.7C581.3 398.7 546.7 403.3 512.9 409.9C501.1 382.6 488.2 356 474.9 329.5C546.5 297.1 613 255.3 671 203.8ZM419.9 351.1C432.3 375.6 444.8 399.9 455.9 425.2C337.2 462.3 235.3 537.7 167 638.3C115.3 579.7 83.6 502.8 83.6 418.3C83.6 410.2 84.3 402.3 84.8 394.3C110.2 396.9 135.8 398.7 161.9 398.7C252.8 398.7 339 380.3 419.9 351.1ZM617.1 457.4C661.1 457.4 703.6 463.7 744.1 474.7C728.7 564.9 677.5 642.6 605.2 692.4C587.8 615.3 563.4 541 535.5 468.4C562.5 463.8 588.8 457.4 617.1 457.4ZM476.9 479.4C507.7 557.7 534 638.3 551.6 722.3C510.3 740.6 464.6 751.1 416.4 751.1C338.3 751.1 266.8 724.1 210.1 679.3C271.7 584.2 366.1 513 476.9 479.4Z" fill="#40FC79"/>
</svg>
