<svg width="863" height="264" viewBox="0 0 863 264" fill="none" xmlns="http://www.w3.org/2000/svg">
<path d="M99.6386 51.6236L95.1472 67.0529C87.9629 57.5444 75.6164 48.2465 56.3092 48.2465C28.4759 48.2465 0.856903 73.8158 0.856903 111.648C0.856903 148.629 28.4666 174.198 56.3092 174.198C75.6164 174.198 87.9629 164.901 95.1472 155.392L99.6386 170.821H140.499V51.6236H99.6386ZM71.5817 134.042C58.3406 134.042 49.3579 123.902 49.3579 111.218C49.3579 98.9642 58.3406 88.3943 71.5817 88.3943C84.3755 88.3943 93.1346 98.1133 93.1346 111.218C93.1346 124.323 84.3755 134.042 71.5817 134.042Z" fill="white"/>
<path d="M248.252 48.2465C231.414 48.2465 218.396 56.062 210.765 67.2634H209.87L205.155 51.6235H167.892V170.812H215.936V101.71C215.936 94.1046 221.546 88.3942 230.752 88.3942C239.511 88.3942 243.993 92.6221 243.993 102.341V170.812H292.038V90.5081C292.028 63.6757 275.871 48.2465 248.252 48.2465Z" fill="white"/>
<path d="M400.464 0.484863V66.4213C393.727 56.2813 381.38 48.2465 364.542 48.2465C335.358 48.2465 308.866 72.9737 308.866 111.227C308.866 149.48 336.029 174.207 365.213 174.207C383.626 174.207 395.972 164.909 403.157 155.401L407.648 170.83H448.508V0.484863H400.464ZM379.582 134.042C366.341 134.042 357.358 123.902 357.358 111.218C357.358 98.9641 366.341 88.3942 379.582 88.3942C392.375 88.3942 401.135 98.1132 401.135 111.218C401.135 124.323 392.385 134.042 379.582 134.042Z" fill="white"/>
<path d="M693.883 109.323C693.883 78.0437 676.961 58.3163 653.33 51.2112C627.314 85.5786 603.944 89.6222 595.492 91.8415C586.118 94.0607 578.347 93.2713 569.085 93.087C567.454 98.8237 566.587 104.946 566.587 111.446C566.587 147.375 593.079 174.207 641.571 174.207C657.514 174.207 672.33 171.251 685.347 165.33V130.884C674.119 135.533 661.996 139.761 648.308 139.761C633.268 139.761 619.347 134.48 613.29 123.069H692.764C693.435 119.042 693.883 114.393 693.883 109.323ZM611.492 98.122C614.855 88.6135 622.72 82.6927 632.15 82.6927C642.474 82.6927 648.317 89.8767 648.541 98.122H611.492ZM632.374 48.2464C604 48.2464 580.881 63.1494 571.34 86.5258C578.692 86.7627 585.345 86.9995 593.144 85.1487C601.167 83.0611 622.608 79.3332 646.994 49.6412C642.307 48.7201 637.396 48.2464 632.374 48.2464Z" fill="white"/>
<path d="M517.425 50.4657H472.307V170.821H520.239V62.7898L517.425 50.4657Z" fill="white"/>
<path d="M676.793 0.484866C675.731 2.75672 674.687 4.97596 673.625 7.14257C664.67 25.3174 655.641 39.1328 646.994 49.6499C622.608 79.3419 601.167 83.0699 593.144 85.1575C585.345 87.0083 578.692 86.7714 571.34 86.5346C564.016 86.2978 556.021 86.0346 545.519 87.8065C530.172 90.394 523.743 99.692 521.385 104.499C520.546 106.244 520.239 107.402 520.239 107.402L515.748 70.5C515.748 70.5 520.071 54.4391 541.028 50.8954C562.022 47.3517 568.582 56.9216 588.653 48.2551C608.743 39.5888 596.266 28.2734 596.266 28.2734L676.793 0.484866Z" fill="white"/>
<path d="M37.6059 245.257C39.8795 245.257 41.9109 244.74 43.5602 244.003V228.618H58.9817V253.319C53.2697 257.169 46.2158 259.757 37.2891 259.757C20.4512 259.757 5.97079 248.591 5.97079 230.758C5.97079 212.925 20.6096 201.689 37.2891 201.689C45.1163 201.689 48.4988 203.54 53.279 206.127V221.662C48.2658 217.89 44.7343 216.636 39.7956 216.636C29.3034 216.636 23.1907 223.223 23.1907 231.135C23.2 239.196 29.2289 245.257 37.6059 245.257Z" fill="white"/>
<path d="M157.269 253.064L156.235 247.477H136.891L130.415 263.634H112.719L136.592 203.101H156.394L175.039 253.073H157.269V253.064ZM151.697 234.539L146.451 219.451L141.28 234.539H151.697Z" fill="white"/>
<path d="M234.619 235.863V203.092H251.69V235.714C251.69 241.854 254.905 245.108 260.384 245.108C266.022 245.108 269.311 241.854 269.311 235.644V213.662H286.456V235.863C286.456 249.766 276.588 259.757 260.384 259.757C244.254 259.757 234.619 249.775 234.619 235.863Z" fill="white"/>
<path d="M385.75 258.354H367.272L345.114 203.101H362.893L376.516 241.416L384.138 208.382H401.833L385.75 258.354Z" fill="white"/>
<path d="M467.032 203.101H487.859C502.507 203.101 512.682 209.241 512.682 222.337C512.682 227.513 510.259 235.056 500.55 238.907L521.357 263.643H501.23L484.495 241.275H484.103V253.073H467.032V203.101ZM487.784 229.205C492.089 229.205 495.462 227.284 495.462 223.434C495.462 219.513 492.098 217.662 487.709 217.662H484.103V229.206L487.784 229.205Z" fill="white"/>
<path d="M576.269 203.101H622.282V217.451H593.34V224.109H605.91V237.126H593.34V244.003H616.673V258.354H576.269V203.101Z" fill="white"/>
<path d="M722.443 263.634L715.799 247.477H696.454L695.579 253.064H677.883L696.138 203.092H715.948L740.222 263.634H722.443ZM711.261 234.539L706.015 219.451L700.843 234.539H711.261Z" fill="white"/>
<path d="M794.192 235.863V216.302H811.263V235.714C811.263 241.854 814.478 245.108 819.957 245.108C825.595 245.108 828.884 241.854 828.884 235.644V203.101H846.029V235.872C846.029 249.775 836.161 259.766 819.957 259.766C803.818 259.757 794.192 249.775 794.192 235.863Z" fill="white"/>
<path d="M158.427 51.6236H130.649L119.512 111.218L129.299 170.813L158.427 170.821L147.67 111.222L158.427 51.6236Z" fill="#7BFF7B"/>
<path d="M723.295 51.7859V170.984H764.155L768.646 155.554C775.83 165.063 788.177 174.361 807.484 174.361C835.327 174.361 862.936 148.791 862.936 111.81C862.936 73.9782 835.317 48.4088 807.484 48.4088C788.177 48.4088 775.83 57.7068 768.646 67.2152L764.155 51.7859H723.295ZM770.668 111.381C770.668 98.2757 779.427 88.5567 792.221 88.5567C805.462 88.5567 814.445 99.1266 814.445 111.381C814.445 124.064 805.462 134.204 792.221 134.204C779.427 134.204 770.668 124.485 770.668 111.381Z" fill="white"/>
<path d="M702.604 51.7859H730.382L741.518 111.381L731.732 170.975L702.604 170.984L713.361 111.385L702.604 51.7859Z" fill="#FF55FF"/>
</svg>
