<?xml version="1.0" encoding="UTF-8"?><svg id="uuid-e2b486b8-97e8-4719-b5cc-fe10eee79900" xmlns="http://www.w3.org/2000/svg" viewBox="0 0 1920 1079.9995"><defs><style>.uuid-f01b17f8-c317-4854-841f-9c7a341a2ed1{fill:#1a1a1a;}</style></defs><g id="uuid-d175933e-1a20-4949-8ae6-d1fa8b9e36ed"><g><path class="uuid-f01b17f8-c317-4854-841f-9c7a341a2ed1" d="m1564.8,1079.9994c-21.3333,0-42.6667,0-64,0-3.6236-6.2297-7.2754-12.4362-10.8663-18.6929-22.572-39.3293-34.8807-83.7816-44.9875-129.3547-8.9575-40.3903-16.9012-81.1743-27.4247-120.9741-9.5277-36.0336-27.1679-66.4076-53.4039-88.6515-34.1056-28.9162-56.8218-25.5439-83.8353,12.6333-19.135,27.0427-37.1583,55.3233-57.3837,81.1295-61.8992,78.9793-137.3718,118.5282-228.6709,106.3947-62.558-8.3138-111.5635-43.9461-141.3395-111.8523-13.3517-30.4495-24.5795-62.3952-35.0546-94.4678-22.4354-68.6936-60.8051-118.2451-117.4394-147.7438-37.307-19.432-75.6107-35.173-115.4751-44.3841-22.6537-5.2343-45.9106-9.1563-68.9118-9.276-46.4346-.2419-88.92,18.085-128.6056,46.3195-49.9899,35.5658-90.9954,83.3441-127.4203,136.8429-51.5719,75.7458-102.4061,152.2172-153.2586,228.6624-32.1254,48.2933-60.5537,99.6424-85.9229,153.4149-5.3334,0-10.6666,0-16,0,18.9346-35.9135,36.3725-73.1312,57.1637-107.4269,29.2779-48.2948,60.8383-94.617,91.7945-141.4291,37.5887-56.8414,74.8484-114.0304,113.5785-169.7418,37.0694-53.3224,79.4444-99.9212,130.3851-134.1592,51.6753-34.7318,106.8251-51.5466,166.0212-41.8425,63.7037,10.4431,125.0551,31.8714,183.7572,63.4349,44.656,24.0109,75.4438,64.6512,94.7781,118.0573,10.8178,29.8817,20.6929,60.26,31.7507,90.0095,13.9965,37.6553,32.7546,71.2486,62.6133,93.5941,43.9051,32.8574,91.3369,36.992,140.1805,21.0508,98.6433-32.1944,163.7944-146.5701,155.5397-271.7731-1.722-26.1181-4.3229-52.1558-5.9012-78.2841-3.9125-64.7763,8.5013-123.8321,44.3373-174.0134,17.2853-24.2046,37.5592-43.7289,64.1706-51.1383,26.3081-7.325,45.4088,6.2775,52.3374,37.4162,2.1026,9.4497,3.6555,19.6506,3.038,29.2843-1.6902,26.3715-4.3225,52.6794-7.2257,78.9101-3.6079,32.5958-9.146,64.9543-11.5296,97.6585-3.4064,46.7381,9.2884,88.599,33.7662,124.5739,36.266,53.3,57.8096,114.0886,69.2146,181.0302,6.4964,38.1305,14.0068,76.1307,23.0901,113.48,11.4855,47.2267,30.8455,89.0731,65.5298,118.2728.7564.6368,1.083,2.0075,1.6101,3.0359Z"/><path class="uuid-f01b17f8-c317-4854-841f-9c7a341a2ed1" d="m0,1018.614v-30.6927c2.7674-4.6812,5.5121-9.3818,8.3055-14.0406,20.5285-34.2382,39.6766-69.8276,61.8691-102.4386,60.1477-88.3834,121.2979-175.7955,182.6205-263.0167,39.6732-56.4288,83.7074-107.3939,135.8915-147.3846,59.8166-45.8396,124.425-73.4113,196.211-69.1236,35.0628,2.0944,69.9914,8.0621,104.9009,13.0752,85.3112,12.2508,167.4029,38.0217,244.7639,83.9604,15.688,9.316,32.2633,16.7931,48.8983,23.4286,20.34,8.1133,38.854,1.8503,53.4235-16.6128,11.4938-14.5655,22.2165-30.2076,31.9874-46.488,30.9846-51.6276,61.4312-103.7096,97.9297-150.1577,38.0806-48.4615,79.7398-91.4484,129.869-121.2984,42.0657-25.0485,86.3074-38.6811,133.6083-33.9675,40.4074,4.0266,66.0372,30.7196,71.9432,78.7736,2.9863,24.2981,2.4286,49.7001.534,74.2774-3.3556,43.5281-9.1858,86.7743-13.5587,130.1995-6.0251,59.8317,3.9882,115.4931,30.2373,167.1602,22.8674,45.0108,39.6182,93.2584,50.7746,144.2981,8.5048,38.9088,16.6368,77.9642,26.2056,116.5007,8.6931,35.01,22.8759,66.7643,45.2696,92.3783,30.7325,35.1518,68.4913,52.1451,109.848,55.2503,36.3439,2.7288,72.9383.6881,109.4221.7048,19.6819.009,39.3638-.0848,59.0457-.1322v47.9573c-3.6675-.6282-7.3294-1.7493-11.0033-1.809-40.7789-.6626-81.559-1.2439-122.3401-1.6784-35.8738-.3821-71.3626-3.8434-105.7082-17.4866-49.5378-19.6781-86.9531-56.0495-105.1078-115.7207-10.4599-34.3798-18.7586-69.9682-25.3418-105.7241-13.0357-70.8026-32.48-138.0827-65.2493-199.5956-21.198-39.7919-31.5064-84.0106-28.645-131.3675,2.2875-37.8569,6.294-75.5835,10.1345-113.2806,3.3264-32.6516,7.9727-65.1192,5.1967-98.2384-4.2625-50.8551-27.0042-78.2032-69.1553-82.607-31.9857-3.3416-61.9793,5.8796-90.6771,21.8407-46.6183,25.928-84.5368,65.2238-117.1871,112.1163-38.0267,54.6141-66.7079,115.2094-75.3392,186.5482-4.1568,34.3566-4.1461,69.425-6.3103,104.1453-1.8623,29.8777-6.3822,58.8748-20.4212,84.6449-27.6319,50.7216-81.3106,55.9681-113.022,9.0874-12.9185-19.0981-22.6174-41.6919-31.993-63.786-14.7947-34.8647-29.4955-69.5225-53.1021-97.4016-32.1732-37.9962-70.929-63.173-114.0623-76.0407-52.9525-15.797-106.6439-28.3857-160.3658-40.0434-84.1977-18.2711-161.9433,3.2736-233.6412,58.7274-52.5629,40.654-96.5472,92.4577-136.2517,149.7214-38.6811,55.7879-76.098,112.8395-114.968,168.434-34.6092,49.5005-69.3887,98.7597-99.4248,152.5113-11.9973,21.47-24.0094,42.9282-36.0148,64.3917Z"/><path class="uuid-f01b17f8-c317-4854-841f-9c7a341a2ed1" d="m0,1068.4897v-30.6927c2.6781-4.7569,5.3857-9.4902,8.0291-14.2747,15.3061-27.7058,29.441-56.4737,46.1467-82.9068,29.7654-47.0974,60.9012-92.9601,91.7965-139.0184,37.7566-56.2874,75.2822-112.8206,113.9666-168.1841,39.5798-56.645,84.073-107.0584,137.7567-144.5605,56.2854-39.3197,116.4555-59.8364,182.0473-51.6028,61.9691,7.7788,122.3838,25.1876,182.1152,45.6807,70.0399,24.03,120.5676,75.1536,148.2221,157.3973,9.0474,26.9065,18.9383,53.6531,30.7357,78.9353,32.6467,69.9631,96.2888,89.1826,150.0608,46.188,32.8963-26.3028,50.6095-64.7827,55.5437-110.7027,3.2865-30.5853,3.2794-61.7983,3.3329-92.7338.0666-38.4761.3249-76.8588,9.8897-113.9627,23.4578-90.9963,70.0839-160.6043,137.7226-209.7642,28.0407-20.38,58.5682-32.3504,92.0887-29.1562,33.3254,3.1756,56.1033,27.4673,60.3185,66.7884,2.0898,19.4951,2.8372,39.6596,1.2245,59.1687-3.5983,43.529-9.6339,86.761-13.6183,130.2534-4.9888,54.4566.8884,106.8634,26.5243,153.6395,32.9497,60.1212,54.2501,125.5221,66.6265,195.7694,6.5908,37.4087,14.677,74.6188,24.4823,110.9909,14.4039,53.4304,43.7785,92.0587,86.6943,115.5069,30.6894,16.768,62.9751,26.7006,96.4466,28.9392,39.9033,2.6688,79.9315,2.5338,119.8806,4.388,19.0853.8858,38.1128,3.5597,57.1664,5.4237-99.7333,0-199.4667,0-299.2,0-2.5147-1.732-4.9478-3.6687-7.5565-5.1653-36.3422-20.8494-62.6513-53.1639-78.9573-97.508-15.8309-43.052-23.7393-88.7267-31.3828-134.4036-11.1783-66.8008-28.5979-130.3096-62.9043-185.7469-29.1513-47.1068-40.9543-99.8363-34.9399-158.057,3.0442-29.4692,6.6074-58.8639,10.1425-88.2567,3.6519-30.3629,7.4913-60.6108,4.3493-91.5115-4.4187-43.4565-28.8478-66.8178-64.8502-60.7751-31.1335,5.2254-56.429,24.5723-78.7364,49.6017-54.9731,61.6807-77.6464,138.5057-73.5392,227.9472,1.6685,36.3341,4.3052,73.0175,1.9719,109.1213-5.853,90.5658-43.1381,156.7239-114.3579,191.2892-58.2954,28.2928-139.4346,19.6858-182.3016-78.1494-13.9543-31.8479-24.8225-65.6984-36.329-99.0167-22.9523-66.4604-61.4624-113.2978-118.1705-138.2313-46.151-20.2918-93.5954-34.9059-141.5461-47.3383-28.2558-7.326-56.8629-10.7684-85.7982-8.5951-51.6672,3.8808-97.8195,26.5907-140.8366,59.7871-53.8155,41.5294-97.1296,96.458-137.0519,155.53-36.4084,53.8729-71.7346,108.8072-108.5432,162.2787-38.2191,55.5205-74.9379,112.245-106.8111,173.3357-9.1553,17.5476-18.5604,34.9078-27.851,52.3539Z"/><path class="uuid-f01b17f8-c317-4854-841f-9c7a341a2ed1" d="m1920,934.2091v42.2025c-22.8836.9601-45.7769,1.6675-68.6485,2.939-35.174,1.9554-70.3336,4.2079-105.3182-2.9487-50.38-10.306-90.1497-39.5398-115.6367-93.8367-13.6993-29.1846-22.3258-60.7766-28.857-93.1346-15.6054-77.315-35.6456-152.3987-69.9341-221.3724-20.1625-40.5583-27.9044-85.7297-25.2258-132.6933,1.9966-35.0033,5.7701-69.9019,9.6896-104.6953,3.9991-35.4998,8.4086-70.8612,6.9905-106.864-2.2959-58.2908-27.972-93.9347-74.7731-102.1766-10.7327-1.8901-21.8299-2.1385-32.6862-1.4602-52.1055,3.2556-100.4239,21.8559-145.4784,53.1003-52.236,36.2247-96.1094,84.5774-137.693,136.2865-26.4509,32.8915-52.5234,66.259-79.779,98.1688-19.7923,23.1721-43.0791,41.4059-71.7331,41.8437-19.4888.2979-39.613-2.1025-58.4544-7.9341-78.2524-24.22-156.4444-48.4311-237.2599-56.9931-35.545-3.7658-71.16-8.9796-106.7562-9.1307-62.8392-.2666-120.4499,23.7505-174.2137,61.9302-59.7168,42.4071-109.1971,98.8686-153.7622,161.8275-40.8781,57.7498-80.4682,116.8159-121.601,174.2987-34.7223,48.5241-70.2467,96.1904-101.0275,148.5446-9.1852,15.623-18.5562,31.0891-27.8422,46.6271v-30.6926c2.5408-3.6044,5.233-7.0723,7.5959-10.8373,9.775-15.5765,18.8014-31.9016,29.2832-46.7542,33.051-46.8325,66.8156-92.9398,99.965-139.6737,40.9256-57.6969,80.9277-116.349,122.3937-173.4774,48.8245-67.2666,104.2528-125.2897,170.7011-166.8799,46.4146-29.0511,95.3913-47.6449,147.8835-51.257,51.5668-3.5484,102.9149,1.7231,153.992,8.9269,52.3918,7.3893,104.4588,18.0335,156.747,26.5559,40.8353,6.6557,81.3801,7.4412,120.1579-13.6219,25.772-13.9987,48.2564-33.8817,69.618-55.687,37.5435-38.3235,74.144-78.0269,112.4494-115.2127,49.808-48.3523,105.0399-85.2027,167.9385-103.3992,35.3427-10.2247,70.9777-18.7377,107.6065-12.25,35.4702,6.2825,64.7017,24.2009,79.1126,66.444,8.4445,24.7534,10.2976,51.0863,7.9122,77.3318-4.9036,53.9532-11.3695,107.702-16.2845,161.6539-5.0003,54.8878,1.1314,107.8368,23.3629,156.9972,23.7095,52.429,42.9456,106.9287,56.5249,164.4233,8.4105,35.6098,17.2249,71.2555,28.3375,105.7365,19.3099,59.9164,53.854,101.2429,107.4338,116.4773,26.4312,7.5152,53.3142,8.8709,80.2834,7.2432,29.0137-1.751,57.9919-4.3483,86.9855-6.5763Z"/><path class="uuid-f01b17f8-c317-4854-841f-9c7a341a2ed1" d="m0,920.7811v-28.7744c2.5004-3.2523,5.1098-6.3948,7.4842-9.7744,18.0273-25.6605,35.6406-51.7544,54.075-76.9861,51.449-70.4198,103.717-139.9869,154.7312-210.8534,41.1664-57.1865,82.9073-113.5026,132.7085-160.3007,58.7771-55.2329,122.8685-97.9992,196.2298-118.4206,61.5431-17.1316,123.9518-14.7235,186.249-9.5167,46.2495,3.8655,92.3066,10.9603,138.5395,15.2112,67.5325,6.2094,129.8421-12.5186,184.8408-60.9998,29.6218-26.1114,58.8876-52.885,87.404-80.7009,77.0971-75.2033,162.5939-128.4221,261.5442-148.0952,44.1392-8.7757,87.6408-9.1543,129.9306,10.8001,45.8377,21.6287,68.8367,60.4483,67.722,119.5019-.6542,34.6537-5.2074,69.2399-8.6149,103.7702-3.6593,37.0818-9.5297,73.9352-11.7295,111.1182-3.0608,51.7359,7.1406,100.7992,26.5525,147.1926,18.5501,44.3337,33.7331,90.3167,46.3198,137.5847,11.0147,41.3643,21.2408,83.1285,38.4839,121.6836,19.976,44.6659,48.8034,77.3214,90.8082,88.169,22.7103,5.8648,46.4181,7.7542,69.7246,8.27,22.2994.4935,44.6619-3.1137,66.9967-4.9185,0,12.1492,0,24.2984,0,36.4476-10.6234,1.0061-21.2456,2.032-31.8705,3.0147-33.7704,3.1234-67.5193,5.9253-101.3713.9739-55.4782-8.1145-96.3739-41.4589-119.8702-102.339-11.1376-28.8583-20.2638-59.1028-27.8771-89.5895-15.6281-62.5811-33.2825-123.9852-59.1424-181.7708-12.7809-28.5597-21.8089-58.925-25.1103-91.425-5.1912-51.1048,1.3133-101.3286,7.653-151.5834,5.0982-40.4137,11.2053-80.7583,8.6899-121.9204-2.8145-46.0551-19.9663-80.7951-56.0743-100.1649-20.5529-11.0254-42.2316-15.5062-64.5952-15.4236-45.0671.1664-88.2846,12.6538-130.5466,29.9903-60.6512,24.8802-112.8354,67.2701-162.1112,115.3244-32.4599,31.6552-64.3597,64.1693-97.3937,94.9355-34.687,32.3055-73.4008,55.7826-118.0182,58.1367-29.941,1.5797-60.3068.1796-90.081-4-70.9481-9.9598-141.702-21.226-213.2548-23.8835-74.1691-2.7547-143.9187,15.1095-209.4278,57.3454-69.6016,44.8742-127.377,106.7219-178.6905,177.7511-38.3883,53.138-75.5756,107.5205-113.7984,160.8331-33.1781,46.2765-67.2791,91.6011-100.5176,137.8167-12.8422,17.8564-24.4314,37.0082-36.5918,55.5698Z"/><path class="uuid-f01b17f8-c317-4854-841f-9c7a341a2ed1" d="m46.4,1079.9994c-5.3334,0-10.6666,0-16,0,.8926-2.2946,1.6281-4.701,2.7012-6.8671,23.2953-47.0224,48.342-92.631,76.9381-135.3072,50.227-74.9573,100.2314-150.1348,151.0035-224.5587,34.4069-50.4351,72.9453-95.7934,119.6354-130.1966,49.3904-36.3928,102.5451-54.7004,160.7917-46.899,46.9736,6.2917,91.7584,22.4102,134.987,45.1564,52.8956,27.8327,93.0832,71.2149,116.3779,135.4965,11.3554,31.335,22.0598,63.0278,34.022,94.0242,23.4636,60.7983,61.3287,102.9464,115.009,123.3384,64.2553,24.4092,127.8188,19.4054,190.5043-8.2087,46.8005-20.6165,85.9838-55.6439,123.273-94.3982,14.2374-14.7967,29.0652-29.3653,45.225-40.7795,25.6856-18.1427,49.7839-11.4856,69.1231,15.899,15.8745,22.4784,23.5589,49.7227,31.2258,77.0303,13.0725,46.5612,25.4904,93.4321,40.0086,139.3431,6.3345,20.0319,17.1784,38.0141,25.9745,56.9272-18.6667,0-37.3333,0-56,0-9.7678-19.4197-19.5145-38.8546-29.3084-58.2552-12.4067-24.576-23.9841-49.836-37.4954-73.5078-17.7342-31.0703-42.7371-42.0005-73.3697-31.7526-11.2771,3.7727-22.4232,8.1804-33.4834,12.7996-31.9403,13.3398-63.3627,28.7662-95.7913,40.0599-74.6987,26.0149-149.7257,28.1162-224.257-2.1214-49.3733-20.031-89.1412-54.9118-113.5434-111.0854-12.7664-29.3884-23.5904-60.0895-34.0119-90.8215-21.6982-63.9862-54.4026-116.0483-106.6296-148.4186-26.1957-16.2361-53.5848-28.2837-82.1434-36.8436-72.3323-21.6802-140.4671-11.3566-204.2492,36.6242-42.7469,32.1567-78.4455,73.5291-110.5975,119.4399-28.9496,41.3377-56.4326,84.146-85.0236,125.8514-35.8639,52.3147-73.7789,102.6915-104.9125,159.4429-10.4967,19.1336-20.0172,39.0369-29.9838,58.5885Z"/><path class="uuid-f01b17f8-c317-4854-841f-9c7a341a2ed1" d="m1920,821.0298v32.611c-28.7419,1.2428-57.5415,4.4726-86.2126,3.2762-46.3645-1.9348-86.2035-22.1027-114.439-68.7107-15.3435-25.3274-25.9596-53.5412-34.5367-82.8751-19.6504-67.2048-37.482-135.1883-63.6969-199.4304-20.9414-51.3187-27.4144-105.9347-21.6085-162.4317,3.5147-34.2018,8.0107-68.2745,12.6602-102.2883,4.7004-34.3858,9.8094-68.6448,8.355-103.7413-1.9202-46.3353-19.357-81.0642-53.7554-102.6846-42.2279-26.5414-87.7178-34.2914-134.3723-27.7924-91.1197,12.6928-175.1889,49.3509-249.8711,113.9822-38.6741,33.4692-75.9183,69.3028-114.1871,103.4584-40.0251,35.7234-83.3867,62.9788-133.4942,72.1918-40.4363,7.4349-80.8439,4.7981-121.2303-.2645-49.0438-6.1478-98.0046-12.6815-147.4855-12.1113-71.6845.8261-140.2088,16.9199-205.0962,54.5492-82.2595,47.7035-150.9734,116.0349-210.9996,197.552-37.3994,50.7896-73.2855,103.1817-110.7254,153.927-39.3793,53.3737-79.8068,105.6353-119.7613,158.3994-6.5541,8.6552-13.0305,17.3948-19.543,26.0953v-26.8561c1.2291-1.1132,2.6291-2.0359,3.6627-3.3672,37.0422-47.7034,74.602-94.8508,110.9201-143.335,43.2646-57.7574,85.2904-116.8457,128.1607-175.0314,56.535-76.7318,120.771-142.1805,195.5225-192.5384,95.1283-64.085,196.8519-90.3584,305.4012-78.834,36.0953,3.8322,72.0661,9.5719,108.2012,12.5964,62.2123,5.2075,121.5884-8.3133,174.4965-49.0311,35.3545-27.2085,69.0563-57.7072,102.3518-88.5137,58.8798-54.4783,121.2299-100.8867,192.8241-127.4883,1.1754-.4368,2.1767-1.5471,3.2593-2.3431h260.8c5.1007,3.3475,10.2028,6.6918,15.3017,10.0432,26.2715,17.2677,44.9905,41.7741,51.005,77.9528,4.1133,24.7426,3.0283,49.7294-.463,74.3278-6.4735,45.61-14.3234,90.9399-20.7509,136.5584-8.7297,61.9589-6.2903,122.8053,14.4587,181.5919,11.1025,31.4558,21.8686,63.1032,32.0309,95.01,13.6733,42.9305,25.6094,86.6915,40.1713,129.1695,13.2814,38.7428,33.1603,72.2112,64.5185,93.5959,26.9864,18.4034,56.628,23.7458,87.0416,24.1952,17.0213.2516,34.0569-.8973,51.0861-1.4151Z"/><path class="uuid-f01b17f8-c317-4854-841f-9c7a341a2ed1" d="m1374.4,1079.9994c-24.5333,0-49.0667,0-73.6,0-1.7116-2.2496-3.2206-4.7957-5.165-6.7043-30.4297-29.8683-66.1203-38.8239-104.2236-35.9872-38.5579,2.8705-77.0094,7.7844-115.5657,10.6979-70.8427,5.3534-139.8553-5.9704-206.7293-34.9344-56.6949-24.5553-98.8799-68.1301-122.7487-135.3615-11.3688-32.0226-21.6685-64.5995-33.3519-96.451-18.2911-49.8657-45.4879-91.1295-85.9731-117.4264-82.7834-53.7716-165.1469-49.4964-246.0259,6.0841-47.7925,32.8433-86.0942,79.2276-121.7186,128.7489-39.6811,55.1606-79.4543,110.281-117.6002,166.9543-24.7043,36.7028-46.5639,76.1578-69.698,114.3796-5.3334,0-10.6666,0-16,0,.9494-2.5849,1.5674-5.4498,2.8977-7.7128,22.4-38.1076,43.6318-77.3268,67.6521-113.9121,36.2527-55.2161,74.5189-108.5296,111.8285-162.7514,30.0371-43.6528,60.4149-86.8755,97.1327-122.957,29.7227-29.2077,61.7417-53.7616,98.5167-67.9745,68.5855-26.5073,134.8395-14.8093,199.198,19.8396,45.0204,24.2377,80.1244,62.07,102.2854,115.2319,12.7238,30.5234,23.7844,62.1329,34.3143,93.8637,25.6804,77.3856,70.8243,128.8492,137.2499,154.3748,72.9605,28.0368,146.6839,29.8346,221.1945,12.2966,35.5554-8.3689,70.8468-18.3495,106.4029-26.7133,41.222-9.6965,75.3159,5.4563,101.328,45.1338,13.1656,20.0821,25.6221,40.8324,38.3992,61.2807Z"/><path class="uuid-f01b17f8-c317-4854-841f-9c7a341a2ed1" d="m649.6,1079.9994c-55.4667,0-110.9333,0-166.4,0,10.9299-22.5733,23.3047-44.3424,32.434-67.918,12.1472-31.3684,17.4912-64.8702,12.35-99.7852-6.4539-43.8298-33.9441-67.7104-70.4223-60.0924-9.5844,2.0016-19.104,5.9912-28.0196,10.7682-28.3616,15.1959-52.1673,38.5092-74.0189,64.3359-42.6465,50.4041-84.5261,101.7409-126.7231,152.6915-21.3334,0-42.6666,0-64,0,1.292-2.2856,2.351-4.8346,3.9109-6.8169,19.7453-25.0925,39.7066-49.9423,59.3309-75.1695,37.9816-48.8257,75.4175-98.3095,119.5232-139.5815,30.1495-28.2124,61.3973-54.339,98.3837-68.2273,35.8406-13.458,70.6933-13.05,101.8119,15.8763,25.4034,23.6135,37.0254,57.2262,42.6984,93.7736,5.059,32.5924,8.0134,65.6464,12.6293,98.348,4.7219,33.4531,18.4119,60.2551,43.2171,77.9833,1.2767.9124,2.2044,2.5265,3.2945,3.814Z"/><path class="uuid-f01b17f8-c317-4854-841f-9c7a341a2ed1" d="m0,611.9358V122.7709c8.1916,5.7572,17.9398,9.7069,24.3035,17.586,26.7223,33.0853,43.3053,72.5658,46.3844,119.0172,2.7264,41.13-6.7559,79.6567-18.6252,117.6423-7.183,22.9879-14.066,46.1562-20.0117,69.6338-2.7365,10.8056-4.8891,23.723,3.7322,32.3012,8.6344,8.5915,18.8012,3.5664,27.1861-1.5896,14.4115-8.8617,28.6561-18.4627,41.9613-29.5018,56.3059-46.7163,112.0746-94.3631,168.3537-141.1265,64.1554-53.3083,129.3613-104.8421,192.7568-159.4082C514.864,105.3024,558.227,55.5075,596.8.0001h30.4c-29.9241,40.5186-61.5207,79.2823-97.4614,111.9065-55.8566,50.7024-112.7645,99.7873-169.9994,148.2464-59.0316,49.9802-118.3081,99.4813-171.1464,158.948-36.332,40.8901-71.7434,82.9734-108.5209,123.271-24.3842,26.718-50.5398,51.0827-80.0719,69.5637Z"/><path class="uuid-f01b17f8-c317-4854-841f-9c7a341a2ed1" d="m1238.4,1079.9994c-120.5333,0-241.0667,0-361.6,0-2.7261-1.1954-5.4469-2.4081-8.1789-3.5836-23.55-10.1329-47.5589-18.9662-70.5594-30.6527-50.0086-25.4092-85.7599-67.946-104.1419-130.2052-9.7764-33.1117-19.0118-66.521-30.1836-98.9582-23.0376-66.8895-62.7085-111.821-123.0382-127.016-44.5424-11.2188-86.9391-1.1997-127.6626,21.1941-53.7049,29.5321-98.6295,73.5302-138.2392,125.1476-41.1375,53.6085-81.2043,108.4326-120.7988,163.6935-18.349,25.6092-34.4678,53.5156-51.5975,80.3805-6.4,0-12.8,0-19.2,0,14.1158-24.3077,26.9311-49.902,42.6008-72.6722,40.5387-58.9073,82.0623-116.8528,123.7197-174.6363,32.1225-44.5572,66.1121-86.9508,106.6355-120.9221,49.53-41.5216,103.2666-68.484,164.9943-63.1739,70.2856,6.0464,126.727,42.32,161.2938,117.7556,15.5585,33.9533,27.2254,70.7572,38.367,107.2725,22.8628,74.9303,64.4646,126.632,126.785,154.5629,70.8455,31.7517,144.1578,45.2101,219.6048,42.7929,37.3009-1.195,74.5877-3.521,111.8911-3.8991,20.2162-.2049,40.4051,2.92,59.308,12.9195Z"/><path class="uuid-f01b17f8-c317-4854-841f-9c7a341a2ed1" d="m812.8,1079.9994c-32,0-64,0-96,0-2.5494-1.6968-5.0116-3.6256-7.6611-5.0557-42.065-22.7034-67.7876-60.8078-77.916-115.0551-6.8528-36.7039-13.7398-73.6991-24.122-109.0834-14.7854-50.3916-43.6909-85.0603-88.927-96.0807-30.8708-7.5208-60.4785-.3998-89.0704,13.825-46.2083,22.9892-86.2432,57.6679-121.7562,99.0039-35.9107,41.7988-69.6873,86.2656-103.8588,130.1679-20.8889,26.8373-40.7602,54.8134-61.0885,82.278-9.0666,0-18.1334,0-27.2,0,5.876-9.4837,11.2693-19.4693,17.7076-28.3682,37.3654-51.6455,74.8072-103.2146,112.5521-154.4612,38.0486-51.659,78.949-99.6146,127.8824-136.6553,36.2389-27.4314,74.4852-48.8777,118.1413-51.3778,57.1609-3.2735,102.9153,22.3299,135.0974,79.9767,18.8066,33.6879,27.762,72.3017,37.455,110.505,8.5465,33.6844,17.6955,67.0651,35.9951,95.4664,20.867,32.3859,49.2131,52.2528,79.8071,68.2812,10.9225,5.7223,21.971,11.0988,32.9619,16.6332Z"/><path class="uuid-f01b17f8-c317-4854-841f-9c7a341a2ed1" d="m1092.8.0001h33.6c-.3598.8123-.5479,1.9011-1.104,2.3973-35.9072,32.0404-70.9835,65.558-108.0213,95.5993-36.8044,29.852-77.8756,47.1559-123.2618,46.3553-35.4419-.6252-67.8639-14.8394-100.0592-30.6154-19.7533-9.6793-39.7509-18.5221-61.4483-19.9041-27.2964-1.7389-52.0008,9.0406-76.0332,22.596-71.7297,40.4585-140.4886,87.4447-207.9768,137.154-89.0762,65.6102-170.764,142.0886-240.2854,236.2874-53.8953,73.0261-108.3055,145.4503-168.9133,210.7332-13.0229,14.0272-26.1939,27.8564-39.2967,41.7767v-32.611c2.1996-1.5951,4.6279-2.8662,6.5656-4.8323,58.684-59.5448,114.1652-123.0665,164.6982-192.5998,67.843-93.3516,144.7265-174.2764,231.0521-242.1718,67.0737-52.7537,134.4821-104.8962,201.7918-157.2178,27.9399-21.7185,55.4646-44.312,84.166-64.4873,32.3134-22.7142,65.4912-21.7475,97.9761,1.2211,16.066,11.3595,32.0055,23.0085,48.3603,33.7421,39.0474,25.6268,80.1375,31.8249,122.8728,15.9112C1009.5215,79.9561,1051.581,40.729,1092.8.0001Z"/><path class="uuid-f01b17f8-c317-4854-841f-9c7a341a2ed1" d="m1219.2.0001h59.2c-2.0666,1.3425-4.0559,2.9044-6.2112,3.9949-40.9634,20.7254-79.2683,47.1314-115.0075,78.7144-34.968,30.9016-69.1677,63.0558-104.2115,93.8303-62.4615,54.8521-132.2383,80.1009-209.7564,71.1441-33.6805-3.8916-67.1735-10.1642-100.8668-13.8378-75.2087-8.2002-147.8055,6.7791-217.8247,39.4655-110.8321,51.7387-203.2678,135.0033-281.7828,241.0258-61.2209,82.6691-120.0902,167.8508-185.6467,245.8349-19.6498,23.3746-38.0953,48.2043-57.0924,72.3675v-26.8561c1.5984-1.666,3.2953-3.2152,4.7812-5.0148,76.7121-92.9046,151.9609-187.3583,222.9605-286.7418,78.7635-110.2512,173.8398-195.6414,284.0045-256.387,50.3489-27.7627,102.4956-48.7107,157.4806-58.8816,40.9908-7.5825,81.2932-1.7896,121.5332,7.3864,37.0299,8.444,74.2483,14.1025,112.0747,9.8275,49.2973-5.5715,93.5045-27.6667,133.7963-61.0443,25.8527-21.4164,50.8385-44.3965,75.6604-67.5281C1146.4209,55.4945,1181.7193,25.8545,1219.2.0001Z"/><path class="uuid-f01b17f8-c317-4854-841f-9c7a341a2ed1" d="m1148.8.0001h41.6c-13.6354,11.144-27.6192,21.7276-40.839,33.5403-35.2506,31.4987-69.778,64.1769-105.3328,95.1661-37.9165,33.0477-79.2926,57.4642-126.2768,66.0798-43.8035,8.0324-86.7085.9258-129.0579-11.971-50.7986-15.4697-101.0478-15.827-151.3973,2.8109-157.2126,58.1955-291.5073,160.0621-402.2502,305.6138-64.283,84.4887-125.5568,172.2867-195.1605,250.8169-13.5193,15.2532-26.7316,30.8978-40.0855,46.3619v-26.8561c4.3023-4.7722,8.6512-9.4857,12.8998-14.3255,55.4553-63.1725,110.741-126.5144,160.7285-196.1633,38.2557-53.3025,77.5572-105.4614,121.6262-152.1356,67.313-71.2925,142.2118-129.1975,221.128-179.9113,50.0538-32.166,100.8913-62.3839,155.0416-83.7493,33.2413-13.1156,66.429-13.3775,99.7979-.6964,16.5043,6.272,33.1645,11.9551,49.7523,17.9114,64.8895,23.3002,126.4197,13.5899,184.9102-26.8134C1057.395,90.0975,1101.4883,42.426,1148.8.0001Z"/><path class="uuid-f01b17f8-c317-4854-841f-9c7a341a2ed1" d="m1920,650.3017v40.2842c-36.7846-4.4466-69.3481-19.5348-94.1593-53.9587-16.0789-22.3085-27.8533-47.9114-35.129-75.7259-12.8934-49.2912-24.4905-99.0842-36.021-148.8699-14.4697-62.4764-9.9345-123.8025,8.9183-184.1389,17.9843-57.5567,45.2609-108.3294,78.3187-154.815C1859.5457,48.3032,1877.9504,24.3331,1896,.0001h24v76.7317c-28.3679,25.6511-55.2524,53.2538-77.7327,86.4748-26.0662,38.5202-44.8499,81.324-52.9272,130.4213-5.6022,34.0531-4.1057,67.8965.8672,101.8078,7.6602,52.2372,15.8029,104.3517,32.8889,153.6238,18.3028,52.7811,48.7783,89.2692,96.9039,101.242Z"/><path class="uuid-f01b17f8-c317-4854-841f-9c7a341a2ed1" d="m1745.6.0001h88c-10.7568,24.9514-20.9335,50.2932-32.3902,74.7738-24.4176,52.1749-47.9844,104.7232-62.7851,162.2427-15.0152,58.3533-19.0642,117.104-4.9046,176.5234,9.22,38.691,18.576,77.3427,28.4063,115.8153,9.141,35.7749,19.3974,71.0638,35.9983,103.164,28.1119,54.3583,69.9792,78.057,122.0752,79.1678,0,12.1492,0,24.2984,0,36.4476-2.6427-.2216-5.2825-.5428-7.9284-.6495-31.1831-1.2568-61.6218-6.2184-89.0476-25.9419-32.208-23.1626-51.7129-58.9007-64.5184-99.5046-17.6867-56.0812-33.9668-112.8517-49.3038-169.9239-7.3799-27.4624-13.4135-55.9844-16.1994-84.567-5.449-55.9055,5.4152-109.8227,19.4596-162.7785,10.5618-39.8244,21.9756-79.3359,31.9773-119.3576,7.0107-28.0532,10.9082-56.7537,1.1606-85.4116Z"/><path class="uuid-f01b17f8-c317-4854-841f-9c7a341a2ed1" d="m1920,767.3176v32.611c-29.6163,3.6344-59.0925,2.9787-88.2377-4.8987-36.0839-9.7527-64.8953-33.0497-83.8875-70.9402-12.002-23.9447-22.1765-49.5434-30.7447-75.5493-14.4741-43.9313-26.9069-88.8251-40.4288-133.213-7.7639-25.4863-16.9484-50.4055-23.7904-76.2286-13.3993-50.5717-11.9338-102.1977-3.8838-153.6272,7.3176-46.7507,15.979-93.1971,23.5374-139.8964,3.7143-22.9491,5.2285-46.203,2.2077-69.574C1670.3683,41.9305,1653.8141,18.0964,1630.4.0001h72c15.197,24.8351,19.1408,52.9302,15.333,82.5897-2.6255,20.4501-6.2982,40.7708-10.4818,60.8564-9.0188,43.299-19.9141,86.0868-27.7604,129.6741-11.0596,61.4375-8.5273,122.3574,10.1707,181.8402,10.2304,32.5452,18.9832,65.7598,29.2828,98.2716,12.6488,39.9272,24.4199,80.4727,39.8336,118.8678,20.129,50.1408,54.2287,81.7855,100.7622,90.487,19.8749,3.7165,40.2901,3.28,60.4598,4.7307Z"/><path class="uuid-f01b17f8-c317-4854-841f-9c7a341a2ed1" d="m0,86.3233v-44.1208c1.3141.1896,2.6283.5489,3.942.5439,37.0467-.1446,66.5059,18.0853,88.54,53.3943,21.1357,33.8694,37.9148,70.8577,53.4504,108.7626,6.7848,16.5537,14.2205,32.9033,22.8277,48.1557,9.433,16.716,23.7162,23.8778,40.6709,23.5858,18.2217-.3139,35.3873-6.2949,51.7361-14.9248,104.2292-55.019,195.3006-132.5193,273.3887-231.8772,7.3775-9.387,13.7858-19.869,20.6441-29.8427h25.6c-29.4146,43.2363-62.5674,82.0186-98.4553,117.4003-78.3069,77.2027-163.9104,141.3169-252.2016,200.4696-23.9395,16.0388-48.1432,31.8331-75.1465,39.5765-23.2887,6.6782-34.7998-2.2046-40.0672-30.1947-.5266-2.7984-.9301-5.6392-1.2475-8.4834-1.9408-17.4026-3.8986-34.803-5.7434-52.2204-5.6205-53.0654-23.6002-99.9613-50.451-142.0263C43.1838,102.1126,24.3242,87.8841,0,86.3233Z"/><path class="uuid-f01b17f8-c317-4854-841f-9c7a341a2ed1" d="m1920,563.9785v59.4671c-45.638-18.7398-70.8877-59.6369-85.0501-112.554-12.9375-48.3403-19.0775-98.1035-22.0946-148.6007-3.3369-55.8497,9.2885-106.1451,35.6835-151.7977,19.5003-33.7277,44.5175-60.9408,71.4612-85.804,0,30.0532,0,60.1066,0,90.1598-2.5753,2.6555-5.3619,5.0695-7.6937,8.0031-28.9921,36.4739-45.0145,79.8208-48.4622,130.0949-3.5518,51.7922-1.345,102.7084,15.5368,151.3296,8.5268,24.5579,20.9857,45.7644,40.6191,59.7018Z"/><path class="uuid-f01b17f8-c317-4854-841f-9c7a341a2ed1" d="m0,23.0196V.0001h68.8c38.2545,17.266,63.3758,52.2883,86.5184,90.5431,15.0039,24.8017,30.8756,48.9573,47.5572,72.1638,20.6764,28.7635,47.5045,39.2667,78.5676,31.4477,12.7162-3.2008,25.5222-7.2936,37.4536-13.344C398.3502,140.5193,463.0912,76.465,520,.0001h22.4c-.7656,1.2914-1.4501,2.6668-2.3089,3.8619-53.7307,74.7752-116.7206,136.1762-187.7009,185.8485-30.8738,21.6058-62.5527,41.2202-97.8305,50.9165-32.3982,8.905-58.5965-1.5751-77.0895-35.3057-18.868-34.4145-37.1406-69.2974-55.7281-103.9336C93.252,48.2991,54.9459,17.064,0,23.0196Z"/><path class="uuid-f01b17f8-c317-4854-841f-9c7a341a2ed1" d="m707.2.0001c-94.3485,79.2931-184.3306,165.8494-281.7853,240.0521-68.6588,52.2773-134.4687,109.7982-192.4254,178.765-35.1578,41.8367-68.5887,85.7634-102.6955,128.8647-38.7721,48.9963-80.5773,94.0084-124.2867,136.5324-1.8131,1.764-3.9963,2.9812-6.007,4.4531v-42.2025c48.5562-39.4748,91.3113-86.9685,132.5611-136.6887,35.1381-42.3534,69.9756-85.2013,106.8436-125.3243,54.8006-59.639,116.6235-108.4386,177.4717-158.5937,64.6072-53.2535,129.0665-106.7595,186.2337-171.5719C618.5443,36.7882,633.0617,18.1273,648,.0001h59.2Z"/><path class="uuid-f01b17f8-c317-4854-841f-9c7a341a2ed1" d="m481.6.0001h24c-1.7658,2.7505-3.3552,5.699-5.3242,8.2216-31.2515,40.0374-65.3676,76.1025-103.6909,106.1787-29.7724,23.3652-60.7616,43.738-95.9007,53.3407-32.0115,8.748-60.2908.5479-84.1391-26.9169-8.0566-9.2786-15.7949-19.0154-23.1547-29.0929C165.2545,73.2065,142.3754,28.7678,105.6.0001h43.2c4.3461,5.1448,8.8121,10.1529,13.0176,15.4578,18.7187,23.6129,36.9967,47.7474,56.1508,70.8385,15.1361,18.247,32.2281,33.5332,53.4912,40.458,26.8623,8.7482,52.3798,1.7144,77.1988-10.4039,39.7484-19.4079,73.9966-49.1395,105.6743-83.2949C463.9271,22.7107,472.5385,11.0552,481.6.0001Z"/><path class="uuid-f01b17f8-c317-4854-841f-9c7a341a2ed1" d="m1072,0c-6.1456,5.9503-12.0856,12.2406-18.4728,17.791-25.7089,22.3411-52.3135,42.8205-82.4881,55.7022-43.6393,18.6297-85.4965,15.0392-124.443-15.9922C823.6435,39.2131,801.6339,19.224,779.2.0001h78.4c12.2147,17.1526,27.4734,29.4235,45.148,36.2169C952.1466,55.204,993.7796,31.849,1033.6.0001c12.8,0,25.6,0,38.4-.0001Z"/><path class="uuid-f01b17f8-c317-4854-841f-9c7a341a2ed1" d="m440,.0001h27.2c-7.4112,8.5676-14.481,17.6144-22.2941,25.618-30.9674,31.7226-64.1419,59.1298-103.4229,74.3156-36.3826,14.0654-70.6994,9.0309-100.0572-20.5595C216.8406,54.5941,194.5223,26.5813,171.2.0001h38.4c17.6889,16.7996,34.5475,35.0983,53.2822,50.0091,22.0676,17.5633,47.3235,22.9235,73.5613,16.618C376.5061,56.9995,409.755,31.7626,440,.0001Z"/><path class="uuid-f01b17f8-c317-4854-841f-9c7a341a2ed1" d="m235.2.0001h59.2C319.4667,12.5327,344.5333,11.0063,369.6.0001h51.2c-20.9961,19.082-43.821,33.953-69.4657,41.7481C305.7712,55.5973,268.5564,35.3384,235.2.0001Z"/><path class="uuid-f01b17f8-c317-4854-841f-9c7a341a2ed1" d="m1920,510.2662c-12.8505-18.117-18.5741-40.0598-21.7248-62.7442-7.0136-50.4961-.6836-98.9706,17.8162-145.1149,1.0033-2.5025,2.5923-4.6676,3.9087-6.9898,0,71.6163,0,143.2326,0,214.8489Z"/><path class="uuid-f01b17f8-c317-4854-841f-9c7a341a2ed1" d="m1001.6.0001C967.4667,19.7426,933.3333,25.4408,899.2.0001h102.4Z"/></g></g></svg>