<svg xmlns="http://www.w3.org/2000/svg" id="uuid-247660dd-4d79-4e83-8417-03801bac07d2" viewBox="0 0 1045.05 1022.222"><defs><style>.uuid-8f34151d-b99c-4662-8c7d-e451eb4ee241{fill:#f5f}.uuid-59a27fa3-571d-49f5-8290-c98b5bf036a9{fill:#40fc79}</style></defs><path d="M465.783 27.786C241.848 52.127 61.726 232.25 37.385 451.316c-24.34 228.803 107.1 433.265 306.694 511.156 14.604 4.868 29.209-4.868 29.209-24.34V860.24s-19.473 4.868-43.814 4.868c-68.154 0-97.363-58.418-102.23-92.495-4.869-19.473-14.605-34.077-29.21-48.682-14.604-4.868-19.472-4.868-19.472-9.736 0-9.736 14.604-9.736 19.472-9.736 29.21 0 53.55 34.077 63.286 48.681 24.341 38.946 53.55 48.682 68.154 48.682 19.473 0 34.077-4.868 43.814-9.736 4.868-34.078 19.472-68.155 48.681-87.627-111.967-24.341-194.726-87.627-194.726-194.727 0-53.55 24.34-107.099 58.418-146.044-4.868-9.736-9.737-34.077-9.737-68.154 0-19.473 0-43.814 9.737-63.286 0-9.736 9.736-14.605 14.604-14.605h4.868c24.341 4.868 73.023 19.473 116.836 63.286 29.209-9.736 63.286-14.604 97.363-14.604s68.154 4.868 97.363 14.604c43.814-43.813 97.363-58.418 121.704-63.286h4.868c9.737 0 14.605 4.868 19.473 14.605v63.286c0 38.945-4.868 58.418-9.736 68.154 34.077 38.945 58.418 87.627 58.418 146.045 0 107.099-82.76 170.385-194.727 194.726 29.21 24.34 48.682 68.154 48.682 111.967V943c0 14.605 14.604 29.21 34.077 24.341 180.122-73.022 306.694-248.276 306.694-452.738 0-292.09-248.276-520.893-540.365-486.816Z"/><path d="m652.76 464.265 183.105 52.614-10.945 38.09-183.105-52.614zM630.662 541.168l183.105 52.614-10.945 38.09-183.105-52.615z" class="uuid-8f34151d-b99c-4662-8c7d-e451eb4ee241"/><path d="m197.444 511.926 183.046-52.82 10.45 36.217-183.045 52.82zM218.544 585.048l183.046-52.82 10.45 36.217-183.045 52.82z" class="uuid-59a27fa3-571d-49f5-8290-c98b5bf036a9"/></svg>